<svg width="66" height="66" viewBox="0 0 66 66" fill="none" xmlns="http://www.w3.org/2000/svg">
<rect opacity="0.4" width="66" height="66" rx="16" fill="#C58324"/>
<path d="M33 19C25.265 19 19 25.265 19 33C19 39.195 23.0075 44.4275 28.5725 46.2825C29.2725 46.405 29.535 45.985 29.535 45.6175C29.535 45.285 29.5175 44.1825 29.5175 43.01C26 43.6575 25.09 42.1525 24.81 41.365C24.6525 40.9625 23.97 39.72 23.375 39.3875C22.885 39.125 22.185 38.4775 23.3575 38.46C24.46 38.4425 25.2475 39.475 25.51 39.895C26.77 42.0125 28.7825 41.4175 29.5875 41.05C29.71 40.14 30.0775 39.5275 30.48 39.1775C27.365 38.8275 24.11 37.62 24.11 32.265C24.11 30.7425 24.6525 29.4825 25.545 28.5025C25.405 28.1525 24.915 26.7175 25.685 24.7925C25.685 24.7925 26.8575 24.425 29.535 26.2275C30.655 25.9125 31.845 25.755 33.035 25.755C34.225 25.755 35.415 25.9125 36.535 26.2275C39.2125 24.4075 40.385 24.7925 40.385 24.7925C41.155 26.7175 40.665 28.1525 40.525 28.5025C41.4175 29.4825 41.96 30.725 41.96 32.265C41.96 37.6375 38.6875 38.8275 35.5725 39.1775C36.08 39.615 36.5175 40.455 36.5175 41.7675C36.5175 43.64 36.5 45.145 36.5 45.6175C36.5 45.985 36.7625 46.4225 37.4625 46.2825C40.2418 45.3443 42.6568 43.5581 44.3677 41.1753C46.0786 38.7926 46.9993 35.9334 47 33C47 25.265 40.735 19 33 19Z" fill="black"/>
</svg>
