<svg width="66" height="66" viewBox="0 0 66 66" fill="none" xmlns="http://www.w3.org/2000/svg">
<rect opacity="0.4" width="66" height="66" rx="16" fill="#C58324"/>
<path d="M12 27.2C12 21.8795 12 19.2193 13.0354 17.1871C13.9462 15.3995 15.3995 13.9462 17.1871 13.0354C19.2193 12 21.8795 12 27.2 12H38.8C44.1205 12 46.7807 12 48.8129 13.0354C50.6004 13.9462 52.0538 15.3995 52.9646 17.1871C54 19.2193 54 21.8795 54 27.2V38.8C54 44.1205 54 46.7807 52.9646 48.8129C52.0538 50.6004 50.6004 52.0538 48.8129 52.9646C46.7807 54 44.1205 54 38.8 54H27.2C21.8795 54 19.2193 54 17.1871 52.9646C15.3995 52.0538 13.9462 50.6004 13.0354 48.8129C12 46.7807 12 44.1205 12 38.8V27.2Z" fill="#330000"/>
<path d="M32.3529 38.3944H25.8445L24.5203 42.6134C24.4835 42.7702 24.3392 42.8812 24.1822 42.8735H20.8857C20.6977 42.8735 20.632 42.7676 20.6885 42.5556L26.3234 25.9107C26.3798 25.7374 26.4362 25.5399 26.4925 25.3183C26.5662 24.9328 26.604 24.5409 26.6052 24.148C26.5891 24.0319 26.6911 23.9294 26.8025 23.9457H31.2822C31.4135 23.9457 31.4886 23.9939 31.5076 24.0902L37.9034 42.5845C37.9597 42.7773 37.9034 42.8737 37.7343 42.8735H34.0715C33.9431 42.8881 33.8204 42.8 33.7898 42.6712L32.3529 38.3944ZM26.8588 34.7533H31.3104C30.579 32.2541 29.7536 29.7876 29.0846 27.2689C28.3628 29.7919 27.5753 32.3047 26.8588 34.7533Z" fill="#FF9A00"/>
<path d="M41.7067 27.0087C41.4193 27.0206 41.1327 26.9701 40.8657 26.8605C40.5987 26.751 40.3572 26.5848 40.1571 26.373C39.9575 26.152 39.8024 25.8927 39.7009 25.61C39.5993 25.3273 39.5533 25.0268 39.5653 24.7258C39.5551 24.4278 39.6062 24.1309 39.7155 23.8546C39.8247 23.5782 39.9896 23.3286 40.1993 23.122C40.4069 22.9176 40.6521 22.7574 40.9205 22.6508C41.1889 22.5441 41.4752 22.4931 41.763 22.5007C42.4392 22.5007 42.9699 22.7078 43.3549 23.122C43.5493 23.3373 43.7003 23.5897 43.7994 23.8649C43.8985 24.1401 43.9437 24.4327 43.9325 24.7258C43.9442 25.028 43.8967 25.3295 43.7926 25.6125C43.6886 25.8954 43.5301 26.1541 43.3267 26.373C43.1141 26.5879 42.8604 26.7554 42.5816 26.8648C42.3028 26.9742 42.0049 27.0232 41.7067 27.0087ZM39.7625 42.5844V28.7714C39.7625 28.5981 39.8374 28.5114 39.988 28.5114H43.4535C43.6036 28.5114 43.6788 28.5981 43.6789 28.7714V42.5844C43.6789 42.7772 43.6038 42.8736 43.4535 42.8734H40.0161C39.8471 42.8734 39.7626 42.7771 39.7625 42.5844Z" fill="#FF9A00"/>
</svg>
