<svg width="166" height="30" viewBox="0 0 166 30" fill="none" xmlns="http://www.w3.org/2000/svg">
<g clip-path="url(#clip0_584_1540)">
<path d="M109.52 8.00469C109.917 8.12344 110.318 8.23106 110.711 8.36095C111.108 8.49083 111.281 8.71721 111.255 9.13655C111.207 9.9938 111.24 10.8548 111.24 11.712V11.9495C109.295 11.6229 108.045 13.0331 108.119 14.2726C108.192 15.4973 109.501 16.6885 111.24 16.3694C111.24 16.6996 111.24 17.0262 111.24 17.3491C111.24 17.6719 111.24 17.9911 111.24 18.3362C111.138 18.3362 111.049 18.3362 110.965 18.3362C110.079 18.3362 109.192 18.3622 108.31 18.3288C107.439 18.2954 107.008 19.0858 107.45 19.6536C107.718 20.0025 107.667 20.4404 107.387 20.7558C107.093 21.0861 106.7 21.1974 106.255 21.0898C105.802 20.9822 105.523 20.6927 105.482 20.2808C105.464 20.073 105.512 19.8206 105.637 19.6536C106.052 19.097 105.666 18.2954 104.765 18.3288C103.872 18.3622 102.979 18.3288 102.085 18.3399C101.886 18.3399 101.787 18.2768 101.692 18.1321C99.9929 15.5455 101.901 12.1388 105.236 11.8159C105.328 11.8085 105.424 11.7937 105.53 11.7788C105.453 11.2444 105.453 10.7249 105.655 10.2239C106.148 9.01038 107.122 8.30157 108.523 8.04551C108.586 8.03438 108.645 8.01582 108.703 8.00098C108.975 8.00098 109.248 8.00098 109.516 8.00098L109.52 8.00469Z" fill="#C58324"/>
<path d="M115.215 8.0047C115.447 8.05294 115.682 8.09376 115.907 8.15685C117.613 8.63558 118.657 10.146 118.385 11.7343C118.385 11.7566 118.385 11.7751 118.381 11.8196C118.58 11.8456 118.782 11.8679 118.984 11.9013C122.098 12.406 123.79 15.5455 122.301 18.043C122.176 18.2546 122.036 18.3548 121.749 18.3436C121.12 18.3214 120.492 18.3362 119.833 18.3362C120.017 17.4419 119.764 16.6848 119.017 16.091C118.506 15.6828 117.892 15.5121 117.208 15.5418C115.947 15.5975 114.59 16.6477 114.914 18.3177H112.678C112.678 18.2175 112.678 18.121 112.678 18.0208C112.678 17.2563 112.678 16.4881 112.678 15.7237C112.678 14.9666 111.961 14.5955 111.23 14.9703C110.718 15.2338 110.163 15.1559 109.807 14.7699C109.479 14.4174 109.483 13.8978 109.807 13.5453C110.156 13.1667 110.718 13.0888 111.233 13.3523C111.965 13.7271 112.675 13.3523 112.678 12.5915C112.678 11.3521 112.682 10.1163 112.675 8.87679C112.675 8.70237 112.744 8.60589 112.899 8.52053C113.34 8.27932 113.807 8.11232 114.322 8.04552C114.366 8.0381 114.41 8.01954 114.454 8.0047C114.708 8.0047 114.965 8.0047 115.219 8.0047H115.215Z" fill="#C58324"/>
<path d="M118.385 26.2184C118.487 26.8641 118.425 27.4802 118.131 28.0739C117.234 29.8775 114.656 30.5492 112.858 29.4544C112.722 29.3728 112.674 29.2874 112.674 29.1427C112.682 28.1704 112.674 27.1981 112.674 26.2258V25.9958C113.612 26.1553 114.417 25.9624 115.079 25.3612C115.59 24.8936 115.822 24.3221 115.789 23.6652C115.719 22.3478 114.318 21.279 112.696 21.587V19.6202C112.781 19.6202 112.869 19.6202 112.954 19.6202C113.84 19.6202 114.726 19.5942 115.608 19.6276C116.462 19.661 116.91 18.8928 116.469 18.3028C116.156 17.8834 116.278 17.3602 116.697 17.0485C117.083 16.759 117.675 16.759 118.065 17.0485C118.48 17.3565 118.601 17.8834 118.285 18.3028C117.859 18.8706 118.267 19.6573 119.149 19.6276C120.05 19.5942 120.951 19.6276 121.852 19.6165C122.017 19.6165 122.109 19.6647 122.19 19.7909C123.937 22.4257 122.05 25.8325 118.649 26.185C118.565 26.1924 118.48 26.211 118.381 26.2258L118.385 26.2184Z" fill="#C58324"/>
<path d="M105.534 26.2296C104.964 26.0848 104.394 26.0032 103.883 25.8028C102.078 25.1014 100.986 23.4648 101.081 21.6947C101.118 21.0081 101.335 20.3773 101.717 19.7835C101.795 19.6685 101.875 19.6128 102.037 19.6128C102.706 19.6202 103.376 19.6165 104.078 19.6165C103.901 20.5368 104.166 21.3162 104.964 21.9136C105.464 22.2884 106.052 22.448 106.7 22.4072C107.475 22.359 108.104 22.0472 108.567 21.4906C109.027 20.9376 109.141 20.3105 108.998 19.6313H111.244C111.244 20.381 111.244 21.1195 111.244 21.8543C111.244 21.999 111.244 22.14 111.244 22.2847C111.255 22.9713 111.98 23.3498 112.641 23.0047C112.921 22.8599 113.204 22.7746 113.531 22.8525C113.972 22.9601 114.259 23.2125 114.34 23.6133C114.421 23.9955 114.285 24.3258 113.928 24.5596C113.561 24.8008 113.171 24.812 112.755 24.6412C112.546 24.5522 112.31 24.4631 112.086 24.4594C111.601 24.4557 111.244 24.8342 111.244 25.3055C111.244 26.571 111.24 27.8402 111.248 29.1056C111.248 29.2875 111.185 29.3914 111.012 29.4804C109.711 30.1633 108.391 30.1967 107.13 29.4507C105.861 28.7048 105.343 27.6101 105.534 26.2555C105.534 26.2333 105.534 26.2147 105.534 26.2296Z" fill="#C58324"/>
<path d="M31.0512 8.39807L24.3703 30H20.6971L15.5422 12.8513L10.3872 30H6.71398L0 8.39807H3.63276L8.55242 26.5339L13.8655 8.39807H17.4983L22.6937 26.571L27.5361 8.39807H31.0512Z" fill="#08090A"/>
<path d="M37.8092 4.17864C37.3386 3.70734 37.1069 3.12841 37.1069 2.44558C37.1069 1.76275 37.3423 1.18383 37.8092 0.712531C38.2762 0.237518 38.8498 0.00372314 39.5263 0.00372314C40.2029 0.00372314 40.7287 0.241229 41.1846 0.712531C41.6405 1.18383 41.8685 1.76275 41.8685 2.44558C41.8685 3.12841 41.6405 3.70734 41.1846 4.17864C40.7287 4.64994 40.1735 4.88744 39.5263 4.88744C38.8792 4.88744 38.2762 4.64994 37.8092 4.17864ZM41.2471 8.39808V30H37.6916V8.39808H41.2471Z" fill="#08090A"/>
<path d="M53.5904 29.1539C52.2888 28.5898 51.2593 27.7994 50.5055 26.79C49.7481 25.7769 49.3326 24.6153 49.2554 23.3016H52.9286C53.0315 24.3778 53.5353 25.261 54.4324 25.9439C55.3296 26.6267 56.5098 26.9681 57.9659 26.9681C59.319 26.9681 60.389 26.6675 61.1685 26.0626C61.9516 25.4577 62.3414 24.697 62.3414 23.7766C62.3414 22.8563 61.9259 22.1289 61.0912 21.6687C60.2566 21.2086 58.9697 20.7558 57.2232 20.3068C55.6348 19.8875 54.3405 19.4607 53.3367 19.0265C52.3329 18.5923 51.4762 17.9503 50.7592 17.0968C50.0422 16.2432 49.6856 15.1188 49.6856 13.7271C49.6856 12.625 50.0091 11.6118 50.6636 10.6915C51.3144 9.77117 52.2373 9.04381 53.436 8.502C54.6346 7.9639 56.0024 7.69299 57.5357 7.69299C59.9036 7.69299 61.8193 8.29789 63.279 9.50769C64.7387 10.7175 65.5182 12.3726 65.6212 14.4731H62.0656C61.9884 13.3449 61.5398 12.4357 60.7199 11.7529C59.8999 11.07 58.8005 10.7286 57.418 10.7286C56.1422 10.7286 55.1273 11.0032 54.3699 11.5562C53.6125 12.1091 53.2374 12.8328 53.2374 13.7234C53.2374 14.4322 53.4654 15.0186 53.9213 15.4787C54.3773 15.9389 54.9509 16.3063 55.6384 16.5809C56.3297 16.8555 57.2857 17.1673 58.5101 17.5087C60.047 17.928 61.2971 18.3437 62.2605 18.7519C63.2238 19.1601 64.0511 19.7724 64.7424 20.5851C65.4336 21.4016 65.7903 22.4629 65.816 23.7766C65.816 24.9604 65.4888 26.0255 64.838 26.9718C64.1872 27.9181 63.268 28.6603 62.084 29.1984C60.9 29.7365 59.5396 30.0074 58.0027 30.0074C56.3628 30.0074 54.892 29.7254 53.5904 29.1613V29.1539Z" fill="#08090A"/>
<path d="M73.9384 12.9515C74.8246 11.2816 76.0416 9.99013 77.5896 9.06979C79.1376 8.14946 80.8767 7.68929 82.8034 7.68929C84.469 7.68929 86.0207 8.07895 87.451 8.85084C88.8813 9.62645 89.977 10.6433 90.7307 11.905V0.475037H94.3231V29.6475H90.7307V25.5876C90.0285 26.8753 88.9879 27.933 87.6054 28.7605C86.2229 29.5881 84.6087 30.0037 82.763 30.0037C80.9172 30.0037 79.1376 29.5324 77.5859 28.5861C76.0379 27.6398 74.8209 26.3113 73.9348 24.6042C73.0486 22.8971 72.6074 20.9525 72.6074 18.7704C72.6074 16.5884 73.0486 14.6252 73.9348 12.9552L73.9384 12.9515ZM89.7564 14.5473C89.1056 13.3375 88.2268 12.4134 87.1201 11.7677C86.0133 11.1257 84.7963 10.8028 83.4689 10.8028C82.1416 10.8028 80.9319 11.1183 79.8362 11.7492C78.7405 12.38 77.869 13.3004 77.2182 14.5102C76.5674 15.72 76.2402 17.1376 76.2402 18.7667C76.2402 20.3959 76.5637 21.8617 77.2182 23.0827C77.869 24.3036 78.7405 25.2388 79.8362 25.8808C80.9282 26.5265 82.1416 26.8456 83.4689 26.8456C84.7963 26.8456 86.0133 26.5228 87.1201 25.8808C88.2268 25.2388 89.1056 24.3036 89.7564 23.0827C90.4072 21.8617 90.7344 20.4367 90.7344 18.8038C90.7344 17.171 90.4072 15.7571 89.7564 14.5473Z" fill="#08090A"/>
<path d="M159.783 9.0475C161.084 9.74517 162.114 10.788 162.868 12.1796C163.621 13.575 164 15.2672 164 17.2637V29.9963H160.485V17.7759C160.485 15.6197 159.955 13.972 158.904 12.829C157.849 11.686 156.422 11.1145 154.628 11.1145C152.833 11.1145 151.307 11.712 150.215 12.907C149.123 14.1019 148.576 15.8313 148.576 18.0913V29.9963H145.06V17.7759C145.06 15.6197 144.535 13.972 143.479 12.829C142.424 11.686 140.997 11.1145 139.203 11.1145C137.409 11.1145 135.883 11.712 134.791 12.907C133.699 14.1019 133.151 15.8313 133.151 18.0913V29.9963H129.595V8.39807H133.151V11.5116C133.853 10.3835 134.798 9.51509 135.982 8.91019C137.166 8.30529 138.475 8.0047 139.909 8.0047C141.707 8.0047 143.296 8.41291 144.674 9.22563C146.053 10.0421 147.083 11.237 147.759 12.8142C148.359 11.289 149.348 10.1089 150.726 9.26645C152.105 8.42405 153.642 8.0047 155.337 8.0047C157.032 8.0047 158.488 8.35354 159.79 9.0475H159.783Z" fill="#08090A"/>
</g>
<defs>
<clipPath id="clip0_584_1540">
<rect width="166" height="30" fill="white"/>
</clipPath>
</defs>
</svg>
