<svg width="116" height="21" viewBox="0 0 116 21" fill="none" xmlns="http://www.w3.org/2000/svg">
<g clip-path="url(#clip0_578_1216)">
<path d="M76.532 5.60328C76.8095 5.6864 77.0896 5.76174 77.3645 5.85266C77.642 5.94358 77.7627 6.10204 77.7447 6.39558C77.7113 6.99566 77.7345 7.59833 77.7345 8.1984V8.36466C76.3753 8.13606 75.5017 9.12319 75.5531 9.99083C75.6044 10.8481 76.5192 11.6819 77.7345 11.4585C77.7345 11.6897 77.7345 11.9183 77.7345 12.1443C77.7345 12.3703 77.7345 12.5938 77.7345 12.8353C77.6625 12.8353 77.6009 12.8353 77.5418 12.8353C76.9225 12.8353 76.3033 12.8535 75.6867 12.8301C75.0777 12.8068 74.7771 13.3601 75.0854 13.7575C75.273 14.0017 75.237 14.3082 75.0418 14.5291C74.8362 14.7603 74.5613 14.8382 74.2504 14.7629C73.9344 14.6875 73.7391 14.4849 73.7108 14.1965C73.698 14.0511 73.7314 13.8744 73.8187 13.7575C74.1091 13.3679 73.8393 12.8068 73.2098 12.8301C72.5854 12.8535 71.9611 12.8301 71.3367 12.8379C71.198 12.8379 71.1286 12.7938 71.0618 12.6925C69.8747 10.8819 71.2082 8.49714 73.5387 8.27114C73.6029 8.26594 73.6697 8.25555 73.7442 8.24516C73.6903 7.87109 73.6903 7.50741 73.8316 7.15671C74.1759 6.30726 74.8568 5.81109 75.8357 5.63185C75.8794 5.62406 75.9205 5.61107 75.9616 5.60068C76.1517 5.60068 76.3419 5.60068 76.5294 5.60068L76.532 5.60328Z" fill="#C58324"/>
<path d="M80.5121 5.60327C80.674 5.63704 80.8384 5.66562 80.9952 5.70978C82.1874 6.04488 82.9171 7.10216 82.7269 8.21398C82.7269 8.22957 82.7269 8.24256 82.7244 8.27373C82.8631 8.29192 83.0044 8.3075 83.1457 8.33088C85.322 8.68417 86.5039 10.8818 85.4633 12.6301C85.376 12.7782 85.2783 12.8483 85.0779 12.8405C84.6386 12.8249 84.1992 12.8353 83.7393 12.8353C83.8677 12.2093 83.6905 11.6793 83.1689 11.2637C82.8117 10.978 82.3826 10.8585 81.9047 10.8792C81.0234 10.9182 80.0753 11.6534 80.3014 12.8223H78.7393C78.7393 12.7522 78.7393 12.6847 78.7393 12.6145C78.7393 12.0794 78.7393 11.5417 78.7393 11.0065C78.7393 10.4766 78.2382 10.2168 77.7269 10.4792C77.3698 10.6636 76.9818 10.6091 76.7326 10.3389C76.5039 10.0921 76.5065 9.72846 76.7326 9.48167C76.9766 9.21671 77.3698 9.16215 77.7295 9.34659C78.2408 9.60896 78.7367 9.34659 78.7393 8.81406C78.7393 7.94642 78.7418 7.08138 78.7367 6.21374C78.7367 6.09164 78.7855 6.0241 78.8934 5.96435C79.2017 5.7955 79.5281 5.67861 79.8878 5.63185C79.9186 5.62665 79.9494 5.61366 79.9803 5.60327C80.1575 5.60327 80.3374 5.60327 80.5147 5.60327H80.5121Z" fill="#C58324"/>
<path d="M82.7266 18.3529C82.7985 18.8049 82.7548 19.2361 82.5493 19.6518C81.9224 20.9143 80.1212 21.3844 78.8648 20.6181C78.7697 20.561 78.7363 20.5012 78.7363 20.3999C78.7415 19.7193 78.7363 19.0387 78.7363 18.3581V18.197C79.3915 18.3087 79.9542 18.1737 80.4167 17.7528C80.7739 17.4255 80.9357 17.0255 80.9126 16.5657C80.8638 15.6435 79.8848 14.8953 78.7517 15.1109V13.7341C78.8108 13.7341 78.8725 13.7341 78.9316 13.7341C79.5508 13.7341 80.17 13.716 80.7867 13.7393C81.3828 13.7627 81.6963 13.225 81.3879 12.8119C81.1695 12.5184 81.2543 12.1521 81.5472 11.9339C81.817 11.7313 82.2307 11.7313 82.503 11.9339C82.7934 12.1495 82.8782 12.5184 82.6572 12.8119C82.3592 13.2094 82.6444 13.7601 83.261 13.7393C83.8905 13.716 84.52 13.7393 85.1495 13.7315C85.2651 13.7315 85.3294 13.7653 85.3859 13.8536C86.6064 15.698 85.2883 18.0827 82.9116 18.3295C82.8525 18.3347 82.7934 18.3477 82.724 18.3581L82.7266 18.3529Z" fill="#C58324"/>
<path d="M73.7469 18.3607C73.3487 18.2594 72.9504 18.2022 72.5933 18.0619C71.3317 17.571 70.5686 16.4254 70.6354 15.1863C70.6611 14.7057 70.8127 14.2641 71.0799 13.8484C71.1339 13.7679 71.1904 13.7289 71.3034 13.7289C71.7711 13.7341 72.2387 13.7315 72.7294 13.7315C72.6061 14.3758 72.7911 14.9213 73.3487 15.3395C73.6981 15.6019 74.1092 15.7136 74.5614 15.685C75.1036 15.6513 75.5429 15.4331 75.8667 15.0434C76.1878 14.6563 76.2675 14.2173 76.1673 13.7419H77.7372C77.7372 14.2667 77.7372 14.7836 77.7372 15.298C77.7372 15.3993 77.7372 15.498 77.7372 15.5993C77.7449 16.0799 78.2511 16.3449 78.7135 16.1033C78.9088 16.002 79.1067 15.9422 79.3353 15.9968C79.6437 16.0721 79.8441 16.2487 79.9006 16.5293C79.9571 16.7969 79.8621 17.0281 79.6128 17.1917C79.3559 17.3606 79.0835 17.3684 78.7932 17.2489C78.6467 17.1865 78.4823 17.1242 78.3256 17.1216C77.9864 17.119 77.7372 17.3839 77.7372 17.7139C77.7372 18.5997 77.7346 19.4881 77.7397 20.3739C77.7397 20.5012 77.6961 20.5739 77.5753 20.6363C76.6657 21.1143 75.7433 21.1377 74.862 20.6155C73.9756 20.0934 73.6133 19.327 73.7469 18.3789C73.7469 18.3633 73.7469 18.3503 73.7469 18.3607Z" fill="#C58324"/>
<path d="M21.6984 5.87866L17.0299 21H14.4631L10.8608 8.99593L7.25851 21H4.6917L0 5.87866H2.53855L5.97639 18.5737L9.68915 5.87866H12.2277L15.8582 18.5997L19.2421 5.87866H21.6984Z" fill="#08090A"/>
<path d="M26.4209 2.92503C26.092 2.59512 25.9302 2.18988 25.9302 1.7119C25.9302 1.23392 26.0946 0.82867 26.4209 0.498759C26.7472 0.166251 27.1481 0.00259399 27.6208 0.00259399C28.0936 0.00259399 28.461 0.168848 28.7796 0.498759C29.0982 0.82867 29.2575 1.23392 29.2575 1.7119C29.2575 2.18988 29.0982 2.59512 28.7796 2.92503C28.461 3.25494 28.073 3.4212 27.6208 3.4212C27.1686 3.4212 26.7472 3.25494 26.4209 2.92503ZM28.8233 5.87865V21H26.3387V5.87865H28.8233Z" fill="#08090A"/>
<path d="M37.4487 20.4077C36.5392 20.0129 35.8197 19.4595 35.293 18.753C34.7637 18.0438 34.4734 17.2307 34.4194 16.3111H36.9862C37.0582 17.0644 37.4102 17.6827 38.0371 18.1607C38.6641 18.6387 39.4888 18.8776 40.5063 18.8776C41.4518 18.8776 42.1995 18.6672 42.7442 18.2438C43.2915 17.8204 43.5639 17.2878 43.5639 16.6436C43.5639 15.9994 43.2735 15.4902 42.6903 15.1681C42.107 14.846 41.2077 14.5291 39.9873 14.2147C38.8773 13.9212 37.9729 13.6225 37.2714 13.3185C36.57 13.0146 35.9713 12.5652 35.4703 11.9677C34.9693 11.3702 34.7201 10.5831 34.7201 9.60897C34.7201 8.83745 34.9462 8.12827 35.4035 7.48403C35.8583 6.8398 36.5032 6.33064 37.3408 5.95137C38.1784 5.5747 39.1343 5.38507 40.2057 5.38507C41.8604 5.38507 43.199 5.8085 44.2191 6.65536C45.2391 7.50222 45.7838 8.6608 45.8558 10.1311H43.3712C43.3172 9.3414 43.0037 8.70496 42.4308 8.22698C41.8578 7.749 41.0896 7.51001 40.1235 7.51001C39.2319 7.51001 38.5227 7.70224 37.9934 8.0893C37.4642 8.47636 37.2021 8.98292 37.2021 9.60637C37.2021 10.1025 37.3614 10.513 37.68 10.8351C37.9986 11.1572 38.3994 11.4144 38.8799 11.6066C39.3629 11.7989 40.031 12.0171 40.8866 12.2561C41.9606 12.5496 42.8342 12.8405 43.5073 13.1263C44.1805 13.412 44.7586 13.8407 45.2417 14.4096C45.7247 14.9811 45.974 15.724 45.9919 16.6436C45.9919 17.4723 45.7633 18.2178 45.3085 18.8802C44.8537 19.5427 44.2114 20.0622 43.384 20.4389C42.5567 20.8156 41.606 21.0052 40.532 21.0052C39.3861 21.0052 38.3583 20.8078 37.4487 20.4129V20.4077Z" fill="#08090A"/>
<path d="M51.6679 9.06607C52.2871 7.89709 53.1376 6.99308 54.2193 6.34885C55.301 5.70461 56.5163 5.3825 57.8627 5.3825C59.0266 5.3825 60.1109 5.65526 61.1104 6.19558C62.1099 6.73851 62.8756 7.45028 63.4023 8.33351V0.33252H65.9126V20.7532H63.4023V17.9113C62.9115 18.8127 62.1844 19.5531 61.2183 20.1324C60.2522 20.7117 59.1243 21.0026 57.8344 21.0026C56.5446 21.0026 55.301 20.6727 54.2167 20.0103C53.135 19.3479 52.2846 18.4179 51.6653 17.2229C51.0461 16.028 50.7378 14.6668 50.7378 13.1393C50.7378 11.6118 51.0461 10.2376 51.6653 9.06867L51.6679 9.06607ZM62.7214 10.1831C62.2666 9.33623 61.6525 8.6894 60.8792 8.23739C60.1058 7.78799 59.2553 7.56199 58.3278 7.56199C57.4002 7.56199 56.5549 7.78279 55.7892 8.22441C55.0235 8.66602 54.4146 9.31025 53.9598 10.1571C53.505 11.004 53.2763 11.9963 53.2763 13.1367C53.2763 14.2771 53.5024 15.3032 53.9598 16.1579C54.4146 17.0125 55.0235 17.6671 55.7892 18.1165C56.5523 18.5685 57.4002 18.7919 58.3278 18.7919C59.2553 18.7919 60.1058 18.5659 60.8792 18.1165C61.6525 17.6671 62.2666 17.0125 62.7214 16.1579C63.1762 15.3032 63.4049 14.3057 63.4049 13.1627C63.4049 12.0197 63.1762 11.0299 62.7214 10.1831Z" fill="#08090A"/>
<path d="M111.655 6.33326C112.565 6.82163 113.284 7.5516 113.811 8.52574C114.338 9.50249 114.602 10.687 114.602 12.0846V20.9974H112.146V12.4431C112.146 10.9338 111.776 9.78044 111.041 8.98034C110.304 8.18024 109.307 7.7802 108.053 7.7802C106.799 7.7802 105.733 8.19843 104.97 9.0349C104.207 9.87136 103.824 11.0819 103.824 12.6639V20.9974H101.367V12.4431C101.367 10.9338 101 9.78044 100.263 8.98034C99.5251 8.18024 98.5282 7.7802 97.2744 7.7802C96.0205 7.7802 94.9542 8.19843 94.1911 9.0349C93.428 9.87136 93.0451 11.0819 93.0451 12.6639V20.9974H90.5605V5.87866H93.0451V8.05815C93.5359 7.26844 94.1962 6.66058 95.0236 6.23715C95.8509 5.81372 96.7656 5.6033 97.7677 5.6033C99.0241 5.6033 100.134 5.88905 101.098 6.45795C102.061 7.02945 102.781 7.86592 103.253 8.96995C103.672 7.90229 104.363 7.07621 105.327 6.48653C106.29 5.89684 107.364 5.6033 108.549 5.6033C109.733 5.6033 110.751 5.84749 111.66 6.33326H111.655Z" fill="#08090A"/>
</g>
<defs>
<clipPath id="clip0_578_1216">
<rect width="116" height="21" fill="white"/>
</clipPath>
</defs>
</svg>
