<svg width="66" height="66" viewBox="0 0 66 66" fill="none" xmlns="http://www.w3.org/2000/svg">
<rect opacity="0.4" width="66" height="66" rx="16" fill="#C58324"/>
<path d="M12 27.2C12 21.8795 12 19.2193 13.0354 17.1871C13.9462 15.3995 15.3995 13.9462 17.1871 13.0354C19.2193 12 21.8795 12 27.2 12H38.8C44.1205 12 46.7807 12 48.8129 13.0354C50.6004 13.9462 52.0538 15.3995 52.9646 17.1871C54 19.2193 54 21.8795 54 27.2V38.8C54 44.1205 54 46.7807 52.9646 48.8129C52.0538 50.6004 50.6004 52.0538 48.8129 52.9646C46.7807 54 44.1205 54 38.8 54H27.2C21.8795 54 19.2193 54 17.1871 52.9646C15.3995 52.0538 13.9462 50.6004 13.0354 48.8129C12 46.7807 12 44.1205 12 38.8V27.2Z" fill="#001E36"/>
<path d="M21 42.7744V24.3051C21 24.1795 21.0525 24.1077 21.175 24.1077C22.9834 24.1077 24.7911 24 26.6 24C29.5352 24 32.7135 25.0036 33.8275 28.0744C34.09 28.8282 34.23 29.6 34.23 30.4077C34.23 31.9513 33.88 33.2256 33.18 34.2308C31.2246 37.0385 27.8355 36.9949 24.7975 36.9949V42.7564C24.8213 42.927 24.6759 43.0077 24.535 43.0077H21.21C21.07 43.0077 21 42.9359 21 42.7744ZM24.815 27.5718V33.6026C26.0196 33.6908 27.2801 33.7004 28.4375 33.3154C29.7152 32.9468 30.415 31.8407 30.415 30.5154C30.4505 29.386 29.8351 28.3024 28.7875 27.8949C27.644 27.4194 26.0493 27.3909 24.815 27.5718Z" fill="#31A8FF"/>
<path d="M45.1451 32.4107C44.6156 32.1316 44.0516 31.9275 43.4687 31.8038C42.7195 31.6275 39.7648 31.0102 39.7637 32.5551C39.7899 33.4177 41.1591 33.8403 41.764 34.0867C43.8878 34.8158 46.2911 36.1192 46.2439 38.7392C46.3088 42.0008 43.1487 43.3047 40.4398 43.305C39.0296 43.3196 37.5605 43.1012 36.2699 42.4958C36.1467 42.4306 36.0674 42.2912 36.0727 42.1491V39.0282C36.0588 38.903 36.1931 38.7937 36.2981 38.8837C37.5626 39.6484 39.0615 40.0197 40.5243 40.0396C41.1701 40.0396 42.45 39.977 42.4403 39.0282C42.4403 38.1176 40.9092 37.699 40.2989 37.4677C39.4143 37.1519 38.5754 36.7144 37.8054 36.1673C36.7294 35.3998 36.0543 34.1691 36.0727 32.8152C36.0664 29.7441 38.9753 28.3657 41.595 28.365C42.8197 28.3549 44.1348 28.4456 45.2749 28.943C45.4388 28.9912 45.4728 29.1639 45.4721 29.3186V32.2373C45.4825 32.4184 45.2813 32.4801 45.1451 32.4107Z" fill="#31A8FF"/>
</svg>
