<svg width="66" height="66" viewBox="0 0 66 66" fill="none" xmlns="http://www.w3.org/2000/svg">
<rect opacity="0.4" width="66" height="66" rx="16" fill="#C58324"/>
<path d="M12 27.2C12 21.8795 12 19.2193 13.0354 17.1871C13.9462 15.3995 15.3995 13.9462 17.1871 13.0354C19.2193 12 21.8795 12 27.2 12H38.8C44.1205 12 46.7807 12 48.8129 13.0354C50.6004 13.9462 52.0538 15.3995 52.9646 17.1871C54 19.2193 54 21.8795 54 27.2V38.8C54 44.1205 54 46.7807 52.9646 48.8129C52.0538 50.6004 50.6004 52.0538 48.8129 52.9646C46.7807 54 44.1205 54 38.8 54H27.2C21.8795 54 19.2193 54 17.1871 52.9646C15.3995 52.0538 13.9462 50.6004 13.0354 48.8129C12 46.7807 12 44.1205 12 38.8V27.2Z" fill="#470137"/>
<path d="M33.9697 24.3507L28.7291 33.2222L34.336 42.6428C34.4525 42.8564 34.336 42.9036 34.1669 42.9036H30.1661C29.8843 42.9036 29.6871 42.8934 29.5744 42.7006C29.1984 41.9493 28.8228 41.2028 28.4474 40.4611C28.0714 39.7196 27.6723 38.9635 27.25 38.1926C26.8274 37.4223 26.4094 36.6421 25.9962 35.8519C25.6202 36.6226 25.2023 37.3932 24.7987 38.1637C24.3946 38.9345 23.9955 39.7002 23.6013 40.4611C23.2069 41.2223 22.8031 41.9784 22.3898 42.7295C22.3145 42.9029 22.1829 42.9208 21.9953 42.9208H18.1354C17.9837 42.9208 17.9654 42.8068 18.0509 42.6717L23.4886 33.5112L18.1917 24.3218C18.0955 24.1907 18.1783 24.051 18.3326 24.0617H22.3052C22.4772 24.052 22.6293 24.1169 22.7279 24.264C23.066 25.0347 23.4416 25.8053 23.8548 26.5758C24.2678 27.3466 24.6858 28.1075 25.1086 28.8587C25.5313 29.61 25.9492 30.371 26.3061 31.1416C26.6816 30.3519 27.062 29.5813 27.4472 28.8298C27.832 28.0785 28.2264 27.3223 28.6305 26.5614C29.0343 25.8005 29.424 25.0444 29.7998 24.2929C29.8497 24.1281 29.9691 24.0445 30.1379 24.0617H33.8288C33.9697 24.0617 34.028 24.2541 33.9697 24.3507Z" fill="#FF61F6"/>
<path d="M42.0561 43.2788C39.5713 43.3175 36.9687 42.2945 35.6604 40.0278C35.0216 38.9396 34.7023 37.5766 34.7024 35.9388C34.6918 34.6125 35.0223 33.3068 35.6604 32.1532C37.3069 29.21 40.624 28.1072 43.7748 28.3966V22.7038C43.7748 22.5692 43.8311 22.5015 43.9439 22.5015H47.4938C47.5909 22.4873 47.6768 22.5754 47.6629 22.6749V39.7533C47.6629 40.4579 47.7328 41.1601 47.7757 41.8628C47.7826 41.9828 47.7131 42.1015 47.6066 42.1518C45.8525 42.9021 43.9546 43.2701 42.0561 43.2788ZM43.7747 39.6955V31.8065C41.2014 31.0915 38.7029 33.0516 38.7033 35.7654C38.6421 38.5712 41.0607 40.5096 43.7747 39.6955Z" fill="#FF61F6"/>
</svg>
