<svg width="66" height="66" viewBox="0 0 66 66" fill="none" xmlns="http://www.w3.org/2000/svg">
<rect opacity="0.4" x="0.5" y="0.5" width="65" height="65" rx="15.5" fill="#C58324" stroke="#091116"/>
<path d="M12 27.2C12 21.8795 12 19.2193 13.0354 17.1871C13.9462 15.3995 15.3995 13.9462 17.1871 13.0354C19.2193 12 21.8795 12 27.2 12H38.8C44.1205 12 46.7807 12 48.8129 13.0354C50.6004 13.9462 52.0538 15.3995 52.9646 17.1871C54 19.2193 54 21.8795 54 27.2V38.8C54 44.1205 54 46.7807 52.9646 48.8129C52.0538 50.6004 50.6004 52.0538 48.8129 52.9646C46.7807 54 44.1205 54 38.8 54H27.2C21.8795 54 19.2193 54 17.1871 52.9646C15.3995 52.0538 13.9462 50.6004 13.0354 48.8129C12 46.7807 12 44.1205 12 38.8V27.2Z" fill="#00005B"/>
<path d="M29.684 38.3458H23.1756L21.8514 42.5729C21.8146 42.7296 21.6703 42.8406 21.5133 42.8329H18.2168C18.0288 42.8329 17.9631 42.727 18.0196 42.5151L23.6545 25.9389C23.7109 25.7656 23.7672 25.5961 23.8236 25.3744C23.8973 24.9888 23.9351 24.597 23.9363 24.2041C23.9202 24.088 24.0204 23.9852 24.1336 24.0018H28.6133C28.7446 24.0018 28.8197 24.0499 28.8387 24.1463L35.2345 42.544C35.2908 42.7368 35.2345 42.8331 35.0654 42.8329H31.4026C31.2742 42.8475 31.1515 42.7595 31.1209 42.6307L29.684 38.3458ZM24.1899 34.7816H28.6415C27.9101 32.2823 27.0847 29.8159 26.4157 27.2971C25.6576 29.9099 24.9576 32.333 24.1899 34.7816Z" fill="#9999FF"/>
<path d="M39.9912 36.7135C40.2502 38.8599 42.0526 39.8832 44.0484 39.8396C45.1738 39.8175 46.3766 39.6428 47.4281 39.2172C47.5219 39.1405 47.569 39.1883 47.569 39.3617V42.107C47.5779 42.2498 47.5182 42.3774 47.3999 42.4537C46.093 43.0475 44.5925 43.2265 43.175 43.2038C38.9483 43.2038 36.0455 40.2257 36.0467 35.8927C36.0357 31.7866 38.6995 28.3225 42.8369 28.3225C46.344 28.2316 48.772 31.0396 48.7818 34.5346C48.7818 35.1712 48.7463 35.8099 48.6691 36.4418C48.6542 36.572 48.5433 36.673 48.4155 36.673C45.6145 36.673 42.7999 36.7135 39.9912 36.7135ZM39.9912 34.0811C41.5522 34.0811 43.1223 34.1362 44.6823 34.0666C44.9168 34.0426 45.0909 33.9982 45.0909 33.7543C45.0584 32.4586 43.9649 31.393 42.6961 31.4425C41.1629 31.3475 40.1818 32.6416 39.9912 34.0811Z" fill="#9999FF"/>
</svg>
